<svg width="253" height="337" viewBox="0 0 253 337" fill="none" xmlns="http://www.w3.org/2000/svg">
    <rect width="253" height="292" rx="8" fill="#DB4444" />
    <path fill-rule="evenodd" clip-rule="evenodd"
        d="M70.7499 326.875C70.7499 332.051 66.5507 336.25 61.3749 336.25H36.375C31.1992 336.25 27 332.051 27 326.875V280C27 262.734 40.9843 248.75 58.2499 248.75H59.8124C62.41 248.75 64.4999 250.84 64.4999 253.437V262.812C64.4999 265.41 62.41 267.5 59.8124 267.5H58.2499C51.3554 267.5 45.75 273.105 45.75 280V292.5H61.3749C66.5507 292.5 70.7499 296.699 70.7499 301.875V326.875ZM127 326.875C127 332.051 122.801 336.25 117.625 336.25H92.6248C87.4491 336.25 83.2499 332.051 83.2499 326.875V280C83.2499 262.734 97.2341 248.75 114.5 248.75H116.062C118.66 248.75 120.75 250.84 120.75 253.437V262.812C120.75 265.41 118.66 267.5 116.062 267.5H114.5C107.605 267.5 102 273.105 102 280V292.5H117.625C122.801 292.5 127 296.699 127 301.875V326.875Z"
        fill="black" />
</svg>