<svg id='Computer_Logo_Facebook_1_24' width='24' height='24' viewBox='0 0 24 24'
    xmlns='http://www.w3.org/2000/svg' xmlns:xlink='http://www.w3.org/1999/xlink'>
    <rect width='24' height='24' stroke='none' fill='#fff' opacity='0' />


    <g transform="matrix(1.54 0 0 1.54 12 12)">
        <path
            style="stroke: #fff; stroke-width: 0.974025974025974; stroke-dasharray: none; stroke-linecap: round; stroke-dashoffset: 0; stroke-linejoin: round; stroke-miterlimit: 4; fill: none; fill-rule: nonzero; opacity: 1;"
            transform=" translate(-7, -7)"
            d="M 0.5 12.5 L 0.5 1.5 C 0.5 0.9477152501692065 0.9477152501692065 0.5 1.5 0.5 L 12.5 0.5 C 13.052284749830793 0.5 13.5 0.9477152501692063 13.5 1.4999999999999998 L 13.5 12.5 C 13.5 13.052284749830793 13.052284749830793 13.5 12.5 13.5 L 9.5 13.5 L 9.5 8.76 L 10.21 8.76 C 10.546893697396785 8.76 10.82 8.486893697396784 10.82 8.15 L 10.82 7.38 C 10.82 7.043106302603216 10.546893697396785 6.77 10.21 6.77 L 9.54 6.77 L 9.54 5.83 C 9.54 4.99 9.92 4.99 10.299999999999999 4.99 L 10.79 4.99 C 10.952929875149295 4.99671156931061 11.110437850754785 4.930777998126916 11.219999999999999 4.8100000000000005 C 11.337493919507706 4.69814626959123 11.402774345410249 4.542198585490707 11.399999999999999 4.380000000000001 L 11.399999999999999 3.64 C 11.405390742871505 3.4755423196898887 11.345185662377657 3.3156869220974334 11.232645879969432 3.195644487528658 C 11.120106097561205 3.075602052959883 10.964463200785593 3.005219608131582 10.8 3 L 9.65 3 C 8.970892231739024 2.9744691154964213 8.314737992771887 3.2479815488518144 7.8548273086090665 3.7483027952214103 C 7.394916624446245 4.248624041591007 7.177501073358043 4.92543857649665 7.26 5.6 L 7.26 6.77 L 6.62 6.77 C 6.456492304410052 6.767319184245124 6.298754978368586 6.830401427595573 6.182185786341833 6.94509047136383 C 6.065616594315081 7.059779515132086 5.999978024611723 7.216470330498318 6 7.379999999999999 L 6 8.15 C 5.999978024611723 8.313529669501682 6.065616594315081 8.470220484867914 6.182185786341833 8.58490952863617 C 6.298754978368586 8.699598572404426 6.456492304410052 8.762680815754877 6.62 8.76 L 7.26 8.76 L 7.26 13.5 L 1.5 13.5 C 0.9477152501692065 13.5 0.5 13.052284749830793 0.5 12.5 Z"
            stroke-linecap="round" />
    </g>
</svg>