<svg id='Logo_Instagram_24' width='24' height='24' viewBox='0 0 24 24'
    xmlns='http://www.w3.org/2000/svg' xmlns:xlink='http://www.w3.org/1999/xlink'>
    <rect width='24' height='24' stroke='none' fill='#000000' opacity='0' />
    <g transform="matrix(1.43 0 0 1.43 12 12)">
        <g style="">
            <g transform="matrix(1 0 0 1 0.02 0.02)">
                <path
                    style="stroke: #fff; stroke-width: 1.048951048951049; stroke-dasharray: none; stroke-linecap: butt; stroke-dashoffset: 0; stroke-linejoin: miter; stroke-miterlimit: 4; fill: none; fill-rule: nonzero; opacity: 1;"
                    transform=" translate(-7, -7)"
                    d="M 1.11801 10.1111 C 1.27088 11.5518 2.43064 12.7117 3.87073 12.871 C 4.88952 12.9837 5.9348 13.079 7.00007 13.079 C 8.06533 13.079 9.11061 12.9837 10.1294 12.871 C 11.5695 12.7117 12.7293 11.5519 12.8821 10.1111 C 12.9896 9.09816 13.079 8.05902 13.079 7.00007 C 13.079 5.94111 12.9896 4.90197 12.8821 3.88907 C 12.7293 2.44829 11.5695 1.28842 10.1294 1.12913 C 9.11061 1.01644 8.06533 0.921143 7.00007 0.921143 C 5.9348 0.921143 4.88952 1.01644 3.87073 1.12913 C 2.43064 1.28842 1.27088 2.44829 1.11801 3.88907 C 1.01054 4.90197 0.921143 5.94111 0.921143 7.00007 C 0.921143 8.05902 1.01054 9.09816 1.11801 10.1111 Z"
                    stroke-linecap="round" />
            </g>
            <g transform="matrix(1 0 0 1 0.02 0.02)">
                <path
                    style="stroke: #fff; stroke-width: 1.048951048951049; stroke-dasharray: none; stroke-linecap: round; stroke-dashoffset: 0; stroke-linejoin: round; stroke-miterlimit: 4; fill: none; fill-rule: nonzero; opacity: 1;"
                    transform=" translate(-7, -7)"
                    d="M 7 9.18236 C 8.20528 9.18236 9.18236 8.20528 9.18236 7 C 9.18236 5.79471 8.20528 4.81763 7 4.81763 C 5.79471 4.81763 4.81763 5.79471 4.81763 7 C 4.81763 8.20528 5.79471 9.18236 7 9.18236 Z"
                    stroke-linecap="round" />
            </g>
            <g transform="matrix(1 0 0 1 3.34 -3.12)">
                <path
                    style="stroke: #fff; stroke-width: 1.048951048951049; stroke-dasharray: none; stroke-linecap: round; stroke-dashoffset: 0; stroke-linejoin: miter; stroke-miterlimit: 4; fill: none; fill-rule: nonzero; opacity: 1;"
                    transform=" translate(-10.32, -3.85)" d="M 10.3169 3.63269 L 10.3169 4.07054"
                    stroke-linecap="round" />
            </g>
        </g>
    </g>
</svg>